<svg width="500" height="500" viewBox="0 0 500 500" fill="none" xmlns="http://www.w3.org/2000/svg">
<g clip-path="url(#clip0_1_3)">
<path d="M500 0H0V500H500V0Z" fill="#E9C1FF"/>
<g opacity="0.2">
<path d="M258.862 418.289C355.084 418.289 433.088 411.47 433.088 403.058C433.088 394.646 355.084 387.826 258.862 387.826C162.639 387.826 84.6348 394.646 84.6348 403.058C84.6348 411.47 162.639 418.289 258.862 418.289Z" fill="#020076"/>
</g>
<path d="M241.401 136.232C241.757 123.406 245.143 112.847 245.143 112.847C245.143 112.847 233.091 111.913 229.554 117.527C226.017 123.142 224.032 135.253 224.032 135.253" fill="#C12D1E"/>
<path d="M208.355 138.023C208.355 138.023 212.274 109.333 227.416 104.701C242.559 100.069 284.423 104.166 291.549 111.114C298.675 118.062 297.695 146.031 297.25 145.674C296.804 145.318 271.24 142.111 271.24 142.111C271.24 142.111 275.961 121.179 262.689 116.28C249.417 111.381 230.712 111.203 227.594 118.774C224.477 126.346 222.369 137.755 222.369 137.755L208.355 138.023Z" fill="#E0452F"/>
<path d="M291.549 111.114C291.549 111.114 284.747 115.042 280.381 117.453C278.444 118.523 277.464 120.748 277.974 122.902C279 127.232 280.383 134.269 279.524 137.754C278.231 143 295.825 141.31 295.825 141.31C295.825 141.31 297.205 128.297 296.27 126.342" fill="#C12D1E"/>
<path d="M297.253 149.265C296.874 149.265 296.495 149.206 296.13 149.087C294.268 148.702 281.821 147.06 270.793 145.676C269.788 145.55 268.882 145.005 268.3 144.176C267.718 143.346 267.513 142.31 267.736 141.321C267.774 141.147 271.593 123.397 261.445 119.651C248.135 114.738 232.713 115.779 230.917 120.142C227.982 127.27 225.922 138.297 225.902 138.408C225.591 140.086 224.143 141.314 222.438 141.347L208.424 141.615C207.358 141.65 206.368 141.195 205.671 140.411C204.973 139.627 204.653 138.576 204.796 137.537C204.968 136.272 209.223 106.509 226.365 101.266C241.753 96.5583 285.487 100.186 294.057 108.542C297.652 112.047 299.918 119.428 300.792 130.482C301.155 135.089 301.17 139.087 301.147 141.06C301.081 146.511 300.791 147.113 299.962 148.051C299.253 148.852 298.256 149.265 297.253 149.265ZM275.364 139.009C285.019 140.226 290.648 140.964 294.003 141.47C294.161 133.88 293.209 117.75 289.041 113.686C283.424 108.209 243.265 103.61 228.467 108.136C219.506 110.877 214.582 125.471 212.667 134.347L219.418 134.218C220.269 130.234 221.997 122.933 224.273 117.406C228.677 106.711 250.52 107.958 263.933 112.91C276.176 117.429 276.157 131.951 275.364 139.009Z" fill="#020076"/>
<path d="M399.862 293.179C399.862 293.179 398.347 332.371 418.745 350.186L399.836 361.587C399.836 361.587 382.973 347.812 381.691 317.585" fill="#5353A0"/>
<path d="M399.837 365.179C399.027 365.179 398.221 364.906 397.564 364.369C396.824 363.765 379.437 349.212 378.101 317.737C378.017 315.755 379.556 314.08 381.538 313.995C383.512 313.907 385.196 315.45 385.28 317.433C386.228 339.771 396.224 352.672 400.352 357.081L412.93 349.496C395.078 329.787 396.211 294.615 396.272 293.04C396.348 291.058 398.034 289.51 400 289.589C401.983 289.666 403.528 291.335 403.452 293.318C403.434 293.805 402.291 331.046 421.108 347.48C421.973 348.235 422.424 349.357 422.324 350.5C422.224 351.643 421.583 352.67 420.6 353.262L401.691 364.664C401.118 365.009 400.476 365.179 399.837 365.179Z" fill="#020076"/>
<path d="M381.869 266.724C381.869 266.724 383.338 311.653 362.317 316.645C341.296 321.638 362.317 338.428 362.317 338.428C387.828 332.63 405.094 312.875 406.765 266.724H381.869Z" fill="#5353A0"/>
<path d="M362.317 342.021C361.51 342.021 360.718 341.749 360.074 341.235C357.995 339.574 347.715 330.857 349.614 322.384C350.621 317.889 354.616 314.782 361.487 313.15C376.388 309.611 378.66 278.522 378.278 266.842C378.246 265.869 378.611 264.925 379.287 264.226C379.964 263.526 380.896 263.132 381.869 263.132H406.765C407.74 263.132 408.674 263.528 409.351 264.23C410.028 264.932 410.39 265.879 410.355 266.854C408.775 310.507 393.322 335.065 363.113 341.931C362.849 341.991 362.582 342.021 362.317 342.021ZM385.477 270.317C385.316 281.73 383.128 315.395 363.147 320.141C359.343 321.044 356.965 322.434 356.625 323.954C356.039 326.569 359.781 331.363 363.251 334.505C388.22 328.061 400.921 307.571 403.004 270.317L385.477 270.317Z" fill="#020076"/>
<path d="M402.088 266.724H374.298C374.298 266.724 377.014 189.498 371.581 177.072C366.147 164.647 352.519 159.436 352.519 159.436C352.519 159.436 372.962 157.298 382.181 157.566C391.4 157.833 402.088 166.768 402.088 171.186C402.088 175.603 406.765 263.053 406.765 263.053L402.088 266.724Z" fill="#30A8F9"/>
<path d="M402.089 270.317H374.297C373.323 270.317 372.39 269.921 371.713 269.22C371.036 268.518 370.673 267.572 370.707 266.598C371.787 235.883 372.035 187.078 368.289 178.512C363.548 167.67 351.351 162.836 351.229 162.789C349.682 162.189 348.743 160.607 348.962 158.962C349.182 157.317 350.496 156.036 352.146 155.863C352.989 155.775 372.939 153.703 382.284 153.974C392.562 154.272 405.681 163.923 405.681 171.185C405.681 174.604 408.736 232.648 410.352 262.862C410.414 264.03 409.903 265.156 408.983 265.879L404.307 269.55C403.674 270.047 402.893 270.317 402.089 270.317ZM378.01 263.132H400.847L403.077 261.38C402.385 248.394 398.525 175.882 398.496 171.235C398.099 168.976 389.917 161.384 382.076 161.156C377.565 161.029 370.143 161.502 363.914 162.004C367.943 165.138 372.238 169.608 374.872 175.633C379.954 187.255 378.527 246.339 378.01 263.132Z" fill="#020076"/>
<path d="M331.276 162.509C331.276 162.509 376.035 158.634 388.995 166.785C401.955 174.935 402.089 266.724 402.089 266.724H414.915C414.915 266.724 417.186 178.275 402.489 158.1C387.792 137.925 302.094 144.123 302.094 144.123L331.276 162.509Z" fill="#2ECFFF"/>
<path d="M414.915 270.317H402.089C400.107 270.317 398.499 268.712 398.496 266.729C398.495 266.501 398.443 243.599 396.815 220.025C393.787 176.167 388.176 170.514 387.082 169.826C377.296 163.671 343.702 165.041 331.585 166.088C330.806 166.159 330.024 165.966 329.36 165.548L300.178 147.163C298.865 146.335 298.232 144.758 298.608 143.252C298.985 141.746 300.286 140.652 301.834 140.54C302.051 140.524 323.732 138.987 346.93 139.957C379.402 141.314 398.525 146.557 405.394 155.984C420.634 176.906 418.6 263.155 418.506 266.817C418.456 268.764 416.863 270.317 414.915 270.317ZM405.653 263.132H411.397C411.844 236.528 410.536 175.247 399.586 160.215C396.539 156.033 385.615 148.772 346.69 147.138C334.125 146.61 322.004 146.832 313.622 147.141L332.176 158.83C340.502 158.171 378.123 155.704 390.907 163.743C394.907 166.258 397.723 172.868 400.039 185.174C401.688 193.939 403.016 205.509 403.986 219.563C405.247 237.844 405.571 255.712 405.653 263.132Z" fill="#020076"/>
<path d="M350.515 305.472L344.192 363.283L229.947 357.894L133.18 353.332L120.175 272.205C120.175 272.205 120.564 262.253 122.067 247.919C124.51 224.567 129.911 189.575 141.413 167.025C132.503 190.437 121.833 240.662 122.067 263.056C122.067 263.056 145.61 255.823 192.59 259.164C226.42 261.565 247 268.175 256.933 276.085C260.795 279.162 263.047 282.432 263.843 285.731L293.506 293.12C293.506 293.12 292.973 228.512 291.368 213.903C289.77 199.299 291.907 173.198 269.37 153.337C265.436 149.87 260.059 147.248 253.856 145.29C225.163 136.194 178.866 141.176 176.884 141.392C184.71 139.811 193.679 138.811 203.248 138.272C218.271 137.416 234.767 137.691 250.586 138.62C281.692 140.44 310.188 144.769 319.804 147.99C340.539 154.942 348.557 187.539 348.377 216.22C348.198 244.901 350.515 305.472 350.515 305.472Z" fill="#30A8F9"/>
<path d="M293.506 293.12L263.843 285.731C263.047 282.432 260.795 279.162 256.933 276.085C247 268.175 226.42 261.565 192.59 259.164C145.61 255.822 122.067 263.056 122.067 263.056C121.833 240.662 132.503 190.437 141.413 167.025C141.413 167.019 141.419 167.013 141.419 167.007C144.748 160.487 148.58 155.014 153.005 151.158C154.412 149.93 155.879 148.871 157.406 147.99C158.167 147.553 158.969 147.128 159.807 146.727C164.436 144.487 170.214 142.739 176.818 141.404C176.818 141.404 176.842 141.404 176.884 141.392C178.866 141.176 225.163 136.194 253.856 145.29C260.059 147.248 265.436 149.87 269.37 153.337C291.907 173.198 289.77 199.299 291.369 213.903C292.973 228.512 293.506 293.12 293.506 293.12Z" fill="#2ECFFF"/>
<path d="M293.506 293.12L263.843 285.731C263.047 282.432 260.795 279.162 256.933 276.085C247 268.175 226.42 261.565 192.59 259.164C145.61 255.822 122.067 263.056 122.067 263.056C121.833 240.662 132.503 190.437 141.413 167.025C141.413 167.019 141.419 167.013 141.419 167.007C144.096 159.984 148.353 154.87 153.005 151.158C155.227 149.379 157.538 147.918 159.807 146.727C168.615 142.086 176.818 141.404 176.818 141.404C176.818 141.404 176.842 141.404 176.884 141.392C178.866 141.176 225.163 136.194 253.856 145.29C260.059 147.248 265.436 149.87 269.37 153.337C291.907 173.198 289.77 199.299 291.369 213.903C292.973 228.512 293.506 293.12 293.506 293.12Z" fill="#FFC41F"/>
<path d="M293.506 293.12L263.843 285.731C263.047 282.432 260.795 279.162 256.933 276.085C290.237 267.163 281.519 235.841 278.046 198.586C275.351 169.618 261.843 152.828 253.856 145.29C260.059 147.248 265.436 149.87 269.37 153.337C291.907 173.198 289.77 199.299 291.368 213.902C292.973 228.512 293.506 293.12 293.506 293.12Z" fill="#E58C0C"/>
<g opacity="0.68">
<path d="M255.173 146.563C255.173 146.563 188.715 141.797 163.729 154.089C138.742 166.382 123.114 250.515 123.114 250.515L122.066 247.917C125.443 215.655 134.461 161.185 157.406 147.988C167.357 142.264 184.111 139.348 203.247 138.27C230.581 141.09 255.173 146.563 255.173 146.563Z" fill="white"/>
</g>
<path d="M273.598 140.437C273.598 140.437 301.748 152.088 306.29 192.838C310.833 233.589 308.651 288.191 308.651 288.191L324.815 289.26C324.815 289.26 324.595 212.301 322.724 192.17C320.854 172.04 315.043 153.617 302.094 144.123" fill="#E0452F"/>
<path d="M324.815 291.954C324.755 291.954 324.696 291.952 324.637 291.948L308.474 290.88C307.016 290.783 305.9 289.543 305.959 288.084C305.981 287.539 308.08 233.212 303.613 193.137C301.365 172.974 293.055 160.407 286.48 153.416C279.341 145.825 272.629 142.953 272.561 142.924C271.192 142.349 270.543 140.773 271.115 139.402C271.687 138.031 273.259 137.379 274.629 137.948C275.839 138.448 304.303 150.688 308.968 192.54C312.915 227.952 311.791 274.259 311.433 285.675L322.109 286.38C322.044 272.201 321.675 209.997 320.041 192.42C317.938 169.778 311.363 154.26 300.5 146.296C299.3 145.416 299.04 143.73 299.921 142.53C300.801 141.33 302.487 141.07 303.686 141.95C315.846 150.865 323.154 167.678 325.408 191.921C327.267 211.942 327.5 286.105 327.509 289.252C327.511 289.999 327.203 290.713 326.658 291.224C326.158 291.695 325.497 291.954 324.815 291.954Z" fill="#020076"/>
<path d="M293.505 296.111C291.863 296.111 290.525 294.787 290.512 293.142C290.507 292.498 289.963 228.522 288.395 214.231C288.145 211.952 287.984 209.417 287.814 206.734C286.873 191.914 285.586 171.618 267.39 155.581C246.11 136.823 177.845 144.298 177.158 144.376C175.51 144.562 174.032 143.381 173.846 141.737C173.661 140.095 174.841 138.612 176.484 138.426C179.397 138.096 248.085 130.583 271.349 151.089C291.405 168.765 292.84 191.386 293.789 206.354C293.955 208.967 294.112 211.435 294.347 213.577C295.949 228.168 296.478 290.448 296.5 293.092C296.513 294.746 295.184 296.097 293.53 296.111C293.522 296.111 293.514 296.111 293.505 296.111Z" fill="#020076"/>
<path d="M344.194 366.874C344.137 366.874 344.08 366.873 344.022 366.87L133.009 356.919C131.027 356.826 129.495 355.143 129.589 353.161C129.682 351.18 131.385 349.648 133.347 349.742L340.987 359.534L346.915 305.343C346.749 300.934 344.614 243.663 344.785 216.198C344.879 201.075 342.667 186.508 338.557 175.181C335.33 166.29 329.26 154.947 318.664 151.397C308.366 147.946 275.543 143.277 243.096 141.826C202.545 140.014 172.749 143.308 159.196 151.104C146.605 158.348 136.479 181.413 129.913 217.807C124.844 245.909 123.775 272.081 123.765 272.342C123.687 274.325 122.007 275.872 120.035 275.792C118.052 275.715 116.508 274.045 116.585 272.063C116.595 271.797 117.678 245.194 122.828 216.607C129.88 177.468 140.911 153.334 155.613 144.876C190.042 125.071 299.868 137.521 320.947 144.584C331.486 148.115 339.91 157.848 345.311 172.73C349.704 184.838 352.069 200.291 351.97 216.242C351.794 244.516 354.082 304.73 354.105 305.334C354.112 305.511 354.106 305.687 354.086 305.862L347.762 363.672C347.562 365.501 346.016 366.874 344.194 366.874Z" fill="#020076"/>
<path d="M361.789 303.608C361.783 303.56 361.783 303.524 361.783 303.512L361.789 303.5V303.608Z" fill="#DB3531"/>
<path d="M369.568 349.517C366.131 351.182 361.029 352.2 354.036 352.487C356.533 367.678 357.634 379.528 352.653 386.306C342.97 399.473 319.642 398.653 295.704 397.377C294.326 396.617 293.009 396.018 291.758 395.617C274.064 389.917 277.657 359.272 277.657 359.272C277.657 359.272 277.465 316.849 277.657 300.574C277.765 291.407 284.076 287.922 289.566 286.635C288.213 286.815 287.453 286.946 287.453 286.946H263.939C263.939 286.946 263.945 286.91 263.945 286.838H287.453C287.453 286.838 296.985 285.144 308.829 285.946C320.678 286.749 358.173 286.659 360.85 291.736C361.658 293.263 361.694 297.646 361.79 303.394V303.52C361.826 305.819 361.874 308.334 361.981 310.969C361.987 310.975 361.987 310.987 361.981 310.993C362.454 322.219 364.053 335.65 370.801 344.063C372.232 345.847 371.621 348.524 369.568 349.517Z" fill="#FFC41F"/>
<path d="M295.704 397.377C293.71 397.275 291.716 397.162 289.722 397.06C286.453 396.892 283.189 396.731 279.968 396.623H133.264C106.541 395.557 103.894 380.21 102.822 371.499C102.816 371.451 102.81 371.409 102.804 371.367C101.768 362.954 103.822 329.633 103.954 327.555V327.519C103.96 327.477 103.96 327.453 103.96 327.453C103.954 327.447 103.954 327.435 103.948 327.429C93.2779 302.856 102.182 277.755 108.415 269.738C114.648 261.72 157.759 255.661 211.565 261.187C216.253 261.666 220.516 262.259 224.402 262.942C233.605 264.552 240.671 266.654 246.09 268.947C263.568 276.336 263.957 285.671 263.945 286.737C263.945 286.802 263.939 286.838 263.939 286.838H263.945C263.945 286.91 263.939 286.946 263.939 286.946H287.453C287.453 286.946 288.213 286.814 289.566 286.635C284.075 287.922 277.764 291.407 277.657 300.574C277.465 316.849 277.657 359.271 277.657 359.271C277.657 359.271 274.064 389.916 291.758 395.617C293.009 396.018 294.326 396.617 295.704 397.377Z" fill="#2ECFFF"/>
<g opacity="0.68">
<path d="M246.089 268.945C207.732 265.664 125.336 263.814 113.701 275.723C101.469 288.244 103.78 324.948 103.948 327.427C93.2776 302.854 102.181 277.753 108.414 269.736C114.648 261.718 157.759 255.659 211.564 261.185C216.253 261.664 220.516 262.257 224.402 262.94C233.605 264.55 240.67 266.652 246.089 268.945Z" fill="white"/>
</g>
<g opacity="0.68">
<path d="M361.789 303.392V303.506C361.783 303.512 361.783 303.512 361.783 303.512C361.783 303.512 357.406 297.453 354.035 296.147C350.67 294.842 304.972 291.812 293.506 293.117C282.045 294.429 278.046 307.727 278.046 307.727C278.046 307.727 277.543 302.494 278.046 297.668C278.549 292.848 284.955 286.944 284.955 286.944C284.955 286.944 284.955 286.908 284.955 286.836H287.452C287.452 286.836 296.985 285.142 308.828 285.944C320.678 286.746 358.173 286.657 360.849 291.734C361.658 293.261 361.693 297.644 361.789 303.392Z" fill="white"/>
</g>
<path d="M369.567 349.623C366.13 351.288 361.029 352.306 354.035 352.593C356.532 367.784 357.634 379.634 352.652 386.411C342.162 400.674 315.666 398.525 289.722 397.165C277.016 387.465 278.07 375.286 278.07 375.286C281.692 389.962 312.84 392.938 331.073 385.37C349.311 377.801 344.192 363.281 344.192 363.281C296.536 362.832 300.218 343.725 300.218 343.725C300.218 343.725 331.989 348.761 348.377 342.169C359.754 337.594 361.801 321.002 361.981 311.099C362.454 322.326 364.053 335.756 370.801 344.169C372.232 345.953 371.621 348.629 369.567 349.623Z" fill="#E58C0C"/>
<path d="M295.931 397.503C290.596 397.221 285.225 396.91 279.968 396.73H133.264C106.409 395.659 103.87 380.162 102.804 371.474C102.81 371.48 102.816 371.492 102.822 371.499C114.528 389.198 170.609 385.462 216.193 382.791C261.801 380.115 251.999 334.602 250.395 302.443C248.82 270.792 225.157 263.283 224.42 263.056C262.46 269.708 263.915 284.791 263.945 286.737V286.839C263.945 286.91 263.939 286.946 263.939 286.946H287.453C287.453 286.946 288.213 286.815 289.566 286.635C284.075 287.922 277.764 291.407 277.657 300.574C277.465 316.849 277.657 359.272 277.657 359.272C277.657 359.272 274.064 389.916 291.758 395.617C293.009 396.018 294.326 396.617 295.703 397.377C295.781 397.419 295.853 397.461 295.931 397.503Z" fill="#30A8F9"/>
<path d="M314.791 401.733C307.771 401.733 300.447 401.339 293.192 400.95C288.808 400.714 284.275 400.471 279.907 400.319H133.266C133.218 400.319 133.171 400.318 133.123 400.316C102.583 399.101 100.239 380.049 99.2376 371.913C98.2226 363.667 99.981 333.769 100.323 328.188C94.4421 314.127 94.8719 300.74 96.2945 291.917C98.1469 280.434 102.305 271.846 105.579 267.636C113.854 256.997 161.561 252.547 211.928 257.717C235.012 260.087 251.296 265.403 260.325 273.517C264.436 277.211 266.216 280.777 266.978 283.352H287.152C288.988 283.052 298.017 281.721 309.072 282.469C311.601 282.64 315.383 282.772 319.762 282.924C352.11 284.049 361.625 285.607 364.027 290.17C365.147 292.299 365.252 295.752 365.365 302.739C365.555 314.488 365.843 332.244 373.604 341.923C374.973 343.63 375.481 345.837 374.997 347.978C374.513 350.124 373.103 351.903 371.129 352.858C367.897 354.423 363.645 355.433 358.205 355.922C360.204 368.984 361.065 381.03 355.548 388.537C347.614 399.331 332.134 401.733 314.791 401.733ZM133.338 393.134H279.97C280.011 393.134 280.052 393.135 280.093 393.136C284.549 393.29 289.139 393.536 293.577 393.775C316.851 395.025 340.912 396.317 349.758 384.281C354.166 378.284 352.537 365.626 350.492 353.173C350.325 352.158 350.602 351.12 351.251 350.322C351.901 349.524 352.861 349.043 353.89 349.001C360.209 348.742 364.956 347.864 367.998 346.39C358.698 334.819 358.387 315.584 358.18 302.855C358.125 299.47 358.059 295.33 357.733 293.804C356.839 293.339 353.716 292.218 343.536 291.337C335.873 290.674 326.802 290.358 319.513 290.105C315.071 289.95 311.234 289.817 308.587 289.638C297.362 288.879 288.169 290.466 288.077 290.482C287.871 290.518 287.66 290.536 287.452 290.536H263.936C262.901 290.536 261.905 290.199 261.223 289.421C260.553 288.657 260.229 287.751 260.345 286.748C260.29 285.734 258.601 269.731 211.194 264.865C186.801 262.361 162.408 262.076 142.508 264.064C121.027 266.21 112.668 270.225 111.251 272.048C105.723 279.154 97.0429 302.638 107.256 326.129C107.483 326.651 107.582 327.219 107.546 327.788C106.784 339.858 105.556 364.43 106.369 371.035C107.341 378.93 108.967 392.138 133.338 393.134Z" fill="#020076"/>
<path d="M358.629 354.761C341.876 356.807 319.776 357.456 303.784 351.753C300.509 350.313 298.049 347.362 296.986 343.981C295.071 338.664 293.859 333.078 293.242 327.515C292.276 318.612 292.779 309.643 294.587 301.025C294.749 300.252 295.508 299.756 296.281 299.918C296.972 300.063 297.442 300.685 297.418 301.366C297.119 315.41 297.963 329.428 303.089 342.506C303.846 344.43 305.559 345.831 307.558 346.289C319.658 349.731 332.615 349.855 345.165 349.585C349.438 349.449 353.774 349.181 357.962 348.812C361.795 348.571 362.462 354.12 358.629 354.761Z" fill="#020076"/>
<path d="M288.178 289.849C282.934 291.318 280.207 296.27 279.892 301.517C279.317 307.607 279.03 313.846 279.229 319.941C279.314 321.967 276.355 322.243 276.078 320.217C275.39 313.873 275.21 307.611 275.324 301.254C275.327 299.658 275.543 297.73 275.894 296.116C277.156 290.646 281.293 285.763 286.726 284.039C290.592 283.2 291.989 288.768 288.178 289.849Z" fill="#020076"/>
<path d="M313.42 401.139C303.203 400.605 290.672 400.571 282.659 393.204C280.882 391.593 279.469 389.621 278.353 387.541C277.894 386.759 277.413 385.662 277.185 384.732C275.469 377.336 275.752 370.02 275.582 362.589C275.548 355.766 275.66 348.966 275.773 342.169C275.788 341.306 276.5 340.617 277.363 340.632C278.207 340.646 278.884 341.332 278.901 342.169C279.026 348.957 279.152 355.744 279.424 362.503C279.748 369.05 279.925 376.027 281.294 382.337C281.46 383.037 281.644 383.683 281.936 384.317C282.122 384.807 282.757 385.719 283.032 386.232C285.578 390.096 289.404 392.38 293.969 393.518C300.218 395.1 306.994 395.11 313.511 395.152C317.532 395.272 317.477 401.129 313.42 401.139Z" fill="#020076"/>
<path d="M112.561 297.749C113.392 293.33 114.249 289.17 116.339 285.056C117.155 283.521 118.437 281.894 120.44 281.637C123.387 281.133 126.425 280.857 129.377 280.595C142.19 279.511 154.994 278.979 167.837 278.791C180.633 278.639 193.648 278.767 206.43 279.853C212.995 280.489 219.607 281.039 226.014 283.155C227.011 283.469 228.104 283.977 229.044 284.448C244.778 293.38 242.055 347.685 240.694 364.599C240.491 366.254 238.068 366.227 238.011 364.48C238.07 355.998 237.932 347.474 237.555 339.003C236.931 327.923 235.54 296.016 226.471 289.639C226.238 289.464 225.671 289.261 225.393 289.129C225.111 288.962 224.459 288.768 224.125 288.661C218.332 286.883 212.059 286.327 205.932 285.777C180.566 283.979 155.043 284.24 129.63 284.814C126.708 284.937 123.778 284.975 120.885 285.29C118.437 285.87 115.556 295.671 114.839 298.229C114.479 299.645 112.333 299.231 112.561 297.749Z" fill="#020076"/>
<path d="M266.039 283.796L265.48 370.142C265.475 370.995 264.779 371.681 263.926 371.676C263.091 371.67 262.416 371.001 262.392 370.173L260.052 283.857C260.081 279.85 265.911 279.747 266.039 283.796Z" fill="#020076"/>
<path d="M103.954 327.517C103.96 327.541 103.96 327.559 103.96 327.559L103.954 327.553V327.517Z" fill="white"/>
<path d="M205.683 201.648C212.914 201.648 218.776 194.829 218.776 186.417C218.776 178.005 212.914 171.186 205.683 171.186C198.451 171.186 192.589 178.005 192.589 186.417C192.589 194.829 198.451 201.648 205.683 201.648Z" fill="#5353A0"/>
<path d="M205.682 204.343C196.977 204.343 189.894 196.301 189.894 186.417C189.894 176.533 196.977 168.491 205.682 168.491C214.388 168.491 221.471 176.533 221.471 186.417C221.471 196.301 214.388 204.343 205.682 204.343ZM205.682 173.88C199.949 173.88 195.284 179.504 195.284 186.417C195.284 193.33 199.949 198.954 205.682 198.954C211.417 198.954 216.081 193.33 216.081 186.417C216.081 179.504 211.417 173.88 205.682 173.88Z" fill="#020076"/>
<path d="M405.607 285.192H383.071C377.333 285.192 372.665 280.524 372.665 274.786V266.724C372.665 264.74 374.273 263.132 376.257 263.132C378.241 263.132 379.85 264.74 379.85 266.724V274.786C379.85 276.562 381.295 278.007 383.071 278.007H405.606C407.383 278.007 408.828 276.562 408.828 274.786V267.348C408.828 265.364 410.437 263.755 412.421 263.755C414.405 263.755 416.013 265.364 416.013 267.348V274.786C416.014 280.524 411.345 285.192 405.607 285.192Z" fill="#020076"/>
<path d="M241.403 139.825C241.369 139.825 241.335 139.825 241.301 139.824C239.318 139.768 237.755 138.116 237.809 136.133C238.176 122.947 241.578 112.201 241.723 111.75C242.328 109.861 244.348 108.82 246.241 109.426C248.129 110.032 249.169 112.054 248.565 113.942C248.524 114.072 245.328 124.228 244.992 136.332C244.938 138.282 243.34 139.825 241.403 139.825Z" fill="#020076"/>
</g>
<defs>
<clipPath id="clip0_1_3">
<rect width="500" height="500" rx="250" fill="white"/>
</clipPath>
</defs>
</svg>
